<svg width="17" height="17" viewBox="0 0 17 17" fill="none" xmlns="http://www.w3.org/2000/svg">
<g clip-path="url(#clip0_1_98)">
<path d="M8.01562 16.8774C12.4339 16.8774 16.0156 13.2957 16.0156 8.87744C16.0156 4.45916 12.4339 0.877441 8.01562 0.877441C3.59735 0.877441 0.015625 4.45916 0.015625 8.87744C0.015625 13.2957 3.59735 16.8774 8.01562 16.8774Z" fill="white"/>
<path d="M8.26465 2.87744V7.31244L12.0131 8.98744L8.26465 2.87744Z" fill="#161617" fill-opacity="0.44"/>
<path d="M8.26463 2.87744L4.51562 8.98744L8.26463 7.31244V2.87744Z" fill="#161617"/>
<path d="M8.26465 11.8615V14.875L12.0156 9.68546L8.26465 11.8615Z" fill="#161617" fill-opacity="0.44"/>
<path d="M8.26463 14.875V11.861L4.51562 9.68546L8.26463 14.875Z" fill="#161617"/>
<path d="M8.26465 11.1639L12.0131 8.98745L8.26465 7.31345V11.1639Z" fill="#161617"/>
<path d="M4.51562 8.98745L8.26463 11.1639V7.31345L4.51562 8.98745Z" fill="#161617" fill-opacity="0.44"/>
</g>
<defs>
<clipPath id="clip0_1_98">
<rect width="16" height="16" fill="white" transform="translate(0.015625 0.877441)"/>
</clipPath>
</defs>
</svg>
