<svg width="27" height="27" viewBox="0 0 27 27" fill="none" xmlns="http://www.w3.org/2000/svg">
<g clip-path="url(#clip0_1_112)">
<path d="M17.6217 4.12343C17.557 3.92432 17.4158 3.75911 17.2295 3.66408C17.0428 3.56894 16.8263 3.552 16.6271 3.61672L13.3252 4.6897C12.9107 4.8244 12.6837 5.26965 12.8185 5.68418L12.9835 6.19225L4.58457 12.3617L1.27144 13.4381C1.07234 13.5029 0.907115 13.644 0.812088 13.8305C0.71706 14.0169 0.700012 14.2336 0.764732 14.4327L2.77778 20.6271C2.88617 20.9606 3.19557 21.1726 3.52821 21.1726C3.60914 21.1726 3.69133 21.1601 3.77236 21.1338L7.08496 20.0573L8.78694 20.0663C9.12874 21.6802 10.5642 22.895 12.2782 22.895C13.9793 22.895 15.4052 21.6984 15.761 20.103L17.5065 20.1122L17.6715 20.6204C17.7362 20.8195 17.8773 20.9847 18.0639 21.0797C18.1758 21.1367 18.2987 21.1657 18.4222 21.1657C18.5043 21.1657 18.5867 21.1528 18.666 21.1271L21.968 20.0542C22.3825 19.9195 22.6095 19.4742 22.4748 19.0597L17.6217 4.12343ZM4.03503 19.3886L2.50996 14.6954L4.4425 14.0674L5.96736 18.7606L4.03503 19.3886ZM12.2781 21.3165C11.4455 21.3165 10.7318 20.8022 10.4351 20.075L14.114 20.0944C13.8127 20.8116 13.1035 21.3165 12.2781 21.3165ZM7.53621 18.4811L6.70612 15.9263L5.87602 13.3715L13.4971 7.77363L15.8342 14.9664L16.9925 18.531L7.53621 18.4811ZM18.9288 19.3819L18.8319 19.0838C18.8318 19.0833 18.8317 19.0827 18.8314 19.082L16.7462 12.6644L14.5636 5.94695L16.3643 5.36174L20.7295 18.7966L18.9288 19.3819Z" fill="#797979"/>
<path d="M20.2796 7.96009C20.3945 8.0186 20.5168 8.04628 20.6374 8.04628C20.9247 8.04628 21.2018 7.88885 21.3412 7.61524L22.7578 4.83597C22.9558 4.44765 22.8014 3.9723 22.4131 3.77435C22.0248 3.57651 21.5495 3.73068 21.3515 4.1191L19.9349 6.89837C19.7369 7.2868 19.8913 7.76215 20.2796 7.96009Z" fill="#797979"/>
<path d="M26.2116 15.4654L23.4319 14.0494C23.0435 13.8517 22.5682 14.0061 22.3704 14.3945C22.1724 14.7829 22.327 15.2582 22.7153 15.456L25.495 16.872C25.6098 16.9304 25.7321 16.9581 25.8526 16.9581C26.1399 16.9581 26.4171 16.8005 26.5565 16.5269C26.7545 16.1386 26.6 15.6633 26.2116 15.4654Z" fill="#797979"/>
<path d="M22.2195 10.8868C22.3279 11.2203 22.6373 11.4323 22.9699 11.4323C23.0509 11.4323 23.1331 11.4198 23.2141 11.3935L26.1805 10.4295C26.5949 10.2948 26.8219 9.84959 26.6871 9.43497C26.5524 9.02034 26.1071 8.79387 25.6925 8.92826L22.7261 9.89221C22.3117 10.027 22.0848 10.4723 22.2195 10.8868Z" fill="#797979"/>
</g>
<defs>
<clipPath id="clip0_1_112">
<rect width="26" height="26" fill="white" transform="translate(0.726074 0.236572)"/>
</clipPath>
</defs>
</svg>
