<svg width="20" height="20" viewBox="0 0 20 20" fill="none" xmlns="http://www.w3.org/2000/svg">
<g clip-path="url(#clip0_305_257)">
<path d="M10.5151 18.9723C5.69184 18.9723 1.76782 15.0483 1.76782 10.225C1.76801 8.11703 2.5293 6.08 3.91167 4.48859C5.29404 2.89717 7.20453 1.85839 9.29175 1.5633C9.45905 1.53989 9.62946 1.57061 9.77805 1.65097C9.92665 1.73133 10.0456 1.85712 10.1176 2.00995C10.1896 2.16277 10.2108 2.33462 10.1782 2.50037C10.1455 2.66611 10.0607 2.81707 9.93612 2.93116C9.36605 3.45383 8.91068 4.08915 8.59885 4.79691C8.28702 5.50467 8.12551 6.26946 8.12455 7.04287C8.12455 10.1155 10.6246 12.6156 13.6973 12.6156C14.4707 12.6146 15.2355 12.4531 15.9432 12.1413C16.651 11.8295 17.2863 11.3741 17.809 10.804C17.9231 10.6794 18.074 10.5945 18.2398 10.5619C18.4055 10.5292 18.5774 10.5504 18.7303 10.6224C18.8831 10.6944 19.0089 10.8134 19.0893 10.962C19.1696 11.1106 19.2003 11.2811 19.1769 11.4484C18.8818 13.5356 17.843 15.4461 16.2516 16.8285C14.6602 18.2108 12.6232 18.9721 10.5152 18.9723H10.5151ZM7.31074 3.81918C4.95017 5.00843 3.35117 7.46511 3.35117 10.225C3.35117 14.1753 6.56484 17.389 10.5151 17.389C13.275 17.389 15.7317 15.79 16.921 13.4294C15.9214 13.9345 14.8172 14.198 13.6973 14.1989C9.75135 14.1989 6.54105 10.9886 6.54105 7.04269C6.54202 5.92278 6.80564 4.81872 7.31074 3.81918Z" fill="#797979"/>
</g>
<defs>
<clipPath id="clip0_305_257">
<rect width="19" height="19" fill="white" transform="translate(0.976074 0.76416)"/>
</clipPath>
</defs>
</svg>
