<svg width="20" height="20" viewBox="0 0 20 20" fill="none" xmlns="http://www.w3.org/2000/svg">
<g clip-path="url(#clip0_305_247)">
<path d="M9.55916 14.2223C11.7453 14.2223 13.5175 12.4501 13.5175 10.264C13.5175 8.07787 11.7453 6.30566 9.55916 6.30566C7.37304 6.30566 5.60083 8.07787 5.60083 10.264C5.60083 12.4501 7.37304 14.2223 9.55916 14.2223Z" stroke="#797979" stroke-width="2" stroke-linecap="round" stroke-linejoin="round"/>
<path d="M9.55908 1.55566V3.139" stroke="#797979" stroke-width="2" stroke-linecap="round" stroke-linejoin="round"/>
<path d="M9.55908 17.3892V18.9725" stroke="#797979" stroke-width="2" stroke-linecap="round" stroke-linejoin="round"/>
<path d="M3.3999 4.10498L4.52407 5.22915" stroke="#797979" stroke-width="2" stroke-linecap="round" stroke-linejoin="round"/>
<path d="M14.594 15.2993L15.7182 16.4235" stroke="#797979" stroke-width="2" stroke-linecap="round" stroke-linejoin="round"/>
<path d="M0.85083 10.2642H2.43416" stroke="#797979" stroke-width="2" stroke-linecap="round" stroke-linejoin="round"/>
<path d="M16.6841 10.2642H18.2674" stroke="#797979" stroke-width="2" stroke-linecap="round" stroke-linejoin="round"/>
<path d="M3.3999 16.4235L4.52407 15.2993" stroke="#797979" stroke-width="2" stroke-linecap="round" stroke-linejoin="round"/>
<path d="M14.594 5.22915L15.7182 4.10498" stroke="#797979" stroke-width="2" stroke-linecap="round" stroke-linejoin="round"/>
</g>
<defs>
<clipPath id="clip0_305_247">
<rect width="19" height="19" fill="white" transform="translate(0.059082 0.76416)"/>
</clipPath>
</defs>
</svg>
