<svg width="27" height="27" viewBox="0 0 27 27" fill="none" xmlns="http://www.w3.org/2000/svg">
<g clip-path="url(#clip0_1_58)">
<path fill-rule="evenodd" clip-rule="evenodd" d="M15.3332 0.629395C9.17988 0.629395 4.19036 6.45051 4.19036 13.6294H0.476074L5.29226 19.2483L5.37893 19.4505L10.3808 13.6294H6.66655C6.66655 8.03939 10.5418 3.51828 15.3332 3.51828C20.1246 3.51828 23.9999 8.03939 23.9999 13.6294C23.9999 19.2194 20.1246 23.7405 15.3332 23.7405C12.9437 23.7405 10.777 22.5994 9.21703 20.7649L7.45893 22.8161C9.47703 25.1705 12.2504 26.6294 15.3332 26.6294C21.4866 26.6294 26.4761 20.8083 26.4761 13.6294C26.4761 6.45051 21.4866 0.629395 15.3332 0.629395ZM14.0951 7.85162V15.0738L19.357 18.7138L20.3104 16.865L15.9523 13.8461V7.85162H14.0951Z" fill="#797979"/>
</g>
<defs>
<clipPath id="clip0_1_58">
<rect width="26" height="26" fill="white" transform="translate(0.476074 0.629395)"/>
</clipPath>
</defs>
</svg>
