<svg width="26" height="27" viewBox="0 0 26 27" fill="none" xmlns="http://www.w3.org/2000/svg">
<path d="M24.1573 4.34634C22.9288 3.14672 21.2315 2.54716 19.0646 2.54716C18.4649 2.54716 17.8529 2.65114 17.2292 2.85899C16.6052 3.06699 16.0247 3.34761 15.4883 3.70064C14.9513 4.05357 14.4897 4.38501 14.1026 4.69444C13.7158 5.00398 13.3482 5.33293 13 5.68103C12.6517 5.33293 12.2841 5.00398 11.8973 4.69444C11.5103 4.38501 11.0486 4.05378 10.5116 3.70064C9.97478 3.34745 9.39439 3.06704 8.77054 2.85899C8.14674 2.65119 7.53484 2.54716 6.93518 2.54716C4.76844 2.54716 3.07101 3.14687 1.84262 4.34634C0.614242 5.5457 0 7.20929 0 9.33726C0 9.98535 0.113833 10.653 0.341042 11.3394C0.568251 12.0262 0.827171 12.6114 1.11729 13.095C1.40736 13.5785 1.73631 14.05 2.10388 14.5095C2.47145 14.9689 2.74008 15.2856 2.90915 15.4597C3.07837 15.6338 3.21142 15.7596 3.30812 15.8371L12.3616 24.5715C12.5357 24.7456 12.7485 24.8329 12.9999 24.8329C13.2514 24.8329 13.4643 24.7456 13.6384 24.5715L22.6774 15.8658C24.8925 13.6511 26 11.4748 26 9.33706C26 7.20894 25.3858 5.5455 24.1573 4.34634ZM21.4151 14.5022L13 22.6126L4.5705 14.4876C2.76167 12.6792 1.85741 10.9621 1.85741 9.33706C1.85741 8.55369 1.96139 7.862 2.16923 7.26245C2.37723 6.66279 2.64322 6.18627 2.96723 5.83323C3.2913 5.4801 3.6854 5.19257 4.14968 4.96993C4.61421 4.7475 5.06878 4.59753 5.51364 4.52019C5.95851 4.44294 6.43239 4.40427 6.93544 4.40427C7.43834 4.40427 7.98011 4.52746 8.56046 4.77418C9.1407 5.0208 9.67511 5.33033 10.1635 5.70268C10.652 6.07528 11.0704 6.42344 11.4187 6.74735C11.7669 7.07158 12.057 7.36881 12.2892 7.63967C12.4632 7.85255 12.7003 7.95897 13.0001 7.95897C13.2999 7.95897 13.5368 7.85255 13.711 7.63967C13.9431 7.36881 14.2334 7.07142 14.5816 6.74735C14.9298 6.42344 15.3482 6.07543 15.8365 5.70268C16.325 5.33033 16.8594 5.0208 17.44 4.77418C18.0201 4.52751 18.562 4.40427 19.065 4.40427C19.5679 4.40427 20.0416 4.44294 20.4867 4.52019C20.9317 4.59748 21.3863 4.7475 21.8507 4.96993C22.315 5.19252 22.7091 5.48025 23.0331 5.83323C23.3571 6.18627 23.6232 6.66279 23.8312 7.26245C24.0388 7.862 24.1428 8.55369 24.1428 9.33706C24.1427 10.9621 23.2337 12.684 21.4151 14.5022Z" fill="#797979"/>
</svg>
