<svg width="47" height="44" viewBox="0 0 47 44" fill="none" xmlns="http://www.w3.org/2000/svg">
<path d="M45.9106 0L25.7433 14.9012L29.4936 6.11944L45.9106 0Z" fill="#E17726"/>
<path d="M1.1366 0.0175781L17.5097 6.12058L21.0707 15.0175L1.1366 0.0175781Z" fill="#E27625"/>
<path d="M37.7946 31.6904L46.7082 31.8598L43.593 42.4276L32.7164 39.4371L37.7946 31.6904Z" fill="#E27625"/>
<path d="M9.20518 31.6904L14.2645 39.4372L3.40617 42.4278L0.309937 31.8598L9.20518 31.6904Z" fill="#E27625"/>
<path d="M20.5864 12.751L20.9508 24.4996L10.0507 24.0044L13.1511 19.3335L13.1904 19.2885L20.5864 12.751Z" fill="#E27625"/>
<path d="M26.3006 12.6201L33.8095 19.2891L33.8483 19.3338L36.9489 24.0047L26.0513 24.4998L26.3006 12.6201Z" fill="#E27625"/>
<path d="M14.5837 31.7246L20.5355 36.3554L13.6217 39.6887L14.5837 31.7246Z" fill="#E27625"/>
<path d="M32.4173 31.7241L33.3593 39.6889L26.465 36.3553L32.4173 31.7241Z" fill="#E27625"/>
<path d="M26.6171 35.9189L33.6133 39.3018L27.1054 42.3904L27.173 40.349L26.6171 35.9189Z" fill="#D5BFB2"/>
<path d="M20.381 35.9204L19.8469 40.3156L19.8907 42.3879L13.3676 39.3018L20.381 35.9204Z" fill="#D5BFB2"/>
<path d="M18.3607 26.0332L20.189 29.87L13.9645 28.0492L18.3607 26.0332Z" fill="#233447"/>
<path d="M28.639 26.0337L33.056 28.0492L26.8113 29.8695L28.639 26.0337Z" fill="#233447"/>
<path d="M15.0595 31.6855L14.0533 39.9428L8.66064 31.866L15.0595 31.6855Z" fill="#CC6228"/>
<path d="M31.9409 31.6855L38.34 31.8661L32.927 39.9431L31.9409 31.6855Z" fill="#CC6228"/>
<path d="M37.1066 23.5376L32.4496 28.277L28.8592 26.6385L27.1401 30.2472L26.0132 24.0416L37.1066 23.5376Z" fill="#CC6228"/>
<path d="M9.89124 23.5376L20.9866 24.0417L19.8596 30.2473L18.1402 26.639L14.5687 28.2771L9.89124 23.5376Z" fill="#CC6228"/>
<path d="M9.57727 22.5649L14.8461 27.9038L15.0287 33.1744L9.57727 22.5649Z" fill="#E27525"/>
<path d="M37.4281 22.5557L31.9669 33.1841L32.1725 27.904L37.4281 22.5557Z" fill="#E27525"/>
<path d="M20.729 22.8901L20.941 24.223L21.465 27.5433L21.1281 37.7413L19.5354 29.5491L19.5349 29.4644L20.729 22.8901Z" fill="#E27525"/>
<path d="M26.2682 22.8721L27.4654 29.4647L27.4649 29.5495L25.8682 37.7621L25.805 35.7079L25.5559 27.4832L26.2682 22.8721Z" fill="#E27525"/>
<path d="M32.6409 27.6919L32.4626 32.2712L26.9045 36.5955L25.7809 35.8028L27.0404 29.3246L32.6409 27.6919Z" fill="#F5841F"/>
<path d="M14.3784 27.6919L19.9596 29.3247L21.2191 35.8027L20.0955 36.5954L14.537 32.2707L14.3784 27.6919Z" fill="#F5841F"/>
<path d="M12.3041 38.2905L19.415 41.655L19.3849 40.2183L19.9799 39.6968H27.0178L27.6343 40.2166L27.5889 41.6523L34.6547 38.299L31.2165 41.1362L27.0589 43.9877H19.9229L15.768 41.1246L12.3041 38.2905Z" fill="#C0AC9D"/>
<path d="M26.1077 35.4712L27.1131 36.1804L27.7023 40.8746L26.8496 40.1556H20.153L19.3165 40.8891L19.8864 36.1807L20.8921 35.4712H26.1077Z" fill="#161616"/>
<path d="M44.5791 0.412598L46.9999 7.6648L45.4881 14.9975L46.5647 15.8268L45.1079 16.9367L46.2027 17.781L44.753 19.0995L45.643 19.7431L43.281 22.4979L33.5927 19.681L33.5088 19.6361L26.5272 13.755L44.5791 0.412598Z" fill="#763E1A"/>
<path d="M2.42087 0.412598L20.4728 13.755L13.4913 19.6361L13.4073 19.681L3.71901 22.4979L1.35698 19.7431L2.24632 19.0999L0.797258 17.781L1.89002 16.9376L0.411495 15.8246L1.52866 14.9947L0 7.66507L2.42087 0.412598Z" fill="#763E1A"/>
<path d="M33.1187 19.0649L43.384 22.0494L46.7191 32.3134L37.9206 32.3134L31.8582 32.3898L36.267 23.8083L33.1187 19.0649Z" fill="#F5841F"/>
<path d="M13.8811 19.0649L10.7323 23.8083L15.1417 32.3898L9.08223 32.3134H0.299316L3.61564 22.0495L13.8811 19.0649Z" fill="#F5841F"/>
<path d="M29.9963 6.07031L27.125 13.8141L26.5157 24.2752L26.2825 27.5541L26.264 35.9301H20.7358L20.7178 27.5698L20.4839 24.2724L19.8743 13.8141L17.0035 6.07031H29.9963Z" fill="#F5841F"/>
</svg>
