<svg width="27" height="27" viewBox="0 0 27 27" fill="none" xmlns="http://www.w3.org/2000/svg">
<path d="M13.4761 16.3916C15.271 16.3916 16.7261 14.9365 16.7261 13.1416C16.7261 11.3467 15.271 9.8916 13.4761 9.8916C11.6811 9.8916 10.2261 11.3467 10.2261 13.1416C10.2261 14.9365 11.6811 16.3916 13.4761 16.3916Z" stroke="#797979" stroke-width="2" stroke-miterlimit="10" stroke-linecap="round" stroke-linejoin="round"/>
<path d="M23.0295 8.56398L22.217 7.15673C21.7685 6.37916 20.7749 6.11348 19.9973 6.56198L19.5699 6.80898C17.9449 7.7466 15.9137 6.57416 15.9137 4.6981V4.2041C15.9137 3.30629 15.1865 2.5791 14.2887 2.5791H12.6637C11.7659 2.5791 11.0387 3.30629 11.0387 4.2041V4.6981C11.0387 6.57416 9.00742 7.74741 7.38242 6.80898L6.95505 6.56198C6.17748 6.11348 5.1838 6.37916 4.7353 7.15673L3.9228 8.56398C3.4743 9.34154 3.73998 10.3352 4.51755 10.7837L4.94492 11.0307C6.56992 11.9692 6.56992 14.314 4.94492 15.2525L4.51755 15.4995C3.73998 15.948 3.4743 16.9417 3.9228 17.7192L4.7353 19.1265C5.1838 19.904 6.17748 20.1697 6.95505 19.7212L7.38242 19.4742C9.00742 18.5358 11.0387 19.709 11.0387 21.5851V22.0791C11.0387 22.9769 11.7659 23.7041 12.6637 23.7041H14.2887C15.1865 23.7041 15.9137 22.9769 15.9137 22.0791V21.5851C15.9137 19.709 17.9449 18.5358 19.5699 19.4742L19.9973 19.7212C20.7749 20.1697 21.7685 19.904 22.217 19.1265L23.0295 17.7192C23.478 16.9417 23.2124 15.948 22.4348 15.4995L22.0074 15.2525C20.3824 14.314 20.3824 11.9692 22.0074 11.0307L22.4348 10.7837C23.2124 10.3352 23.4789 9.34154 23.0295 8.56398Z" stroke="#797979" stroke-width="2" stroke-miterlimit="10" stroke-linecap="round" stroke-linejoin="round"/>
</svg>
